# xmcd
#
# Track frame offsets:
#	150
#	68246
#	137510
#	206538
#
# Disc length: 3657 seconds
#
# Revision: 0
# Processed by: cddbd v1.5.1PL0 Copyright (c) Steve Scherf et al.
# Submitted via: EasyCDDAExtractor 4.6.9.1
#
DISCID=340e4704
DTITLE=Nature et Découvertes - Nature après la pluie
DYEAR=2004
DGENRE=Ambient
TTITLE0=Fin d'orage nocturne
TTITLE1=Près de la rivière
TTITLE2=Réveil de la forêt
TTITLE3=Au bord de l'étang
EXTD=
EXTT0=
EXTT1=
EXTT2=
EXTT3=
PLAYORDER=
